{
  "accessors": [
    {
      "bufferView": 2,
      "componentType": 5126,
      "count": 432,
      "max": [
        187.98097229003906,
        249.15274047851562,
        115.30690002441406
      ],
      "min": [
        101.98616790771484,
        247.15272521972656,
        29.409452438354492
      ],
      "type": "VEC3"
    },
    {
      "bufferView": 2,
      "byteOffset": 5184,
      "componentType": 5126,
      "count": 432,
      "max": [
        0.99999821186065674,
        1,
        0.99922066926956177
      ],
      "min": [
        -0.99999821186065674,
        -1,
        -0.99933052062988281
      ],
      "type": "VEC3"
    },
    {
      "bufferView": 3,
      "componentType": 5126,
      "count": 432,
      "max": [
        0.7921568751335144,
        0.81960785388946533,
        0.93333333730697632,
        1
      ],
      "min": [
        0.7921568751335144,
        0.81960785388946533,
        0.93333333730697632,
        1
      ],
      "type": "VEC4"
    },
    {
      "bufferView": 1,
      "componentType": 5126,
      "count": 432,
      "max": [
        0,
        0
      ],
      "min": [
        0,
        0
      ],
      "type": "VEC2"
    },
    {
      "bufferView": 0,
      "componentType": 5125,
      "count": 1260,
      "max": [
        431
      ],
      "min": [
        0
      ],
      "type": "SCALAR"
    },
    {
      "bufferView": 2,
      "byteOffset": 10368,
      "componentType": 5126,
      "count": 232,
      "max": [
        155.95069885253906,
        243.14787292480469,
        113.34734344482422
      ],
      "min": [
        133.98532104492188,
        221.17631530761719,
        34.847343444824219
      ],
      "type": "VEC3"
    },
    {
      "bufferView": 2,
      "byteOffset": 13152,
      "componentType": 5126,
      "count": 232,
      "max": [
        0.99998247623443604,
        0.99998247623443604,
        1
      ],
      "min": [
        -0.99998247623443604,
        -0.99998247623443604,
        -1
      ],
      "type": "VEC3"
    },
    {
      "bufferView": 3,
      "byteOffset": 6912,
      "componentType": 5126,
      "count": 232,
      "max": [
        0.7921568751335144,
        0.81960785388946533,
        0.93333333730697632,
        1
      ],
      "min": [
        0.7921568751335144,
        0.81960785388946533,
        0.93333333730697632,
        1
      ],
      "type": "VEC4"
    },
    {
      "bufferView": 1,
      "byteOffset": 3456,
      "componentType": 5126,
      "count": 232,
      "max": [
        0,
        0
      ],
      "min": [
        0,
        0
      ],
      "type": "VEC2"
    },
    {
      "bufferView": 0,
      "byteOffset": 5040,
      "componentType": 5125,
      "count": 696,
      "max": [
        231
      ],
      "min": [
        0
      ],
      "type": "SCALAR"
    },
    {
      "bufferView": 2,
      "byteOffset": 15936,
      "componentType": 5126,
      "count": 588,
      "max": [
        189.98350524902344,
        87.0528564453125,
        83.958427429199219
      ],
      "min": [
        99.983497619628906,
        47.0528564453125,
        64.908424377441406
      ],
      "type": "VEC3"
    },
    {
      "bufferView": 2,
      "byteOffset": 22992,
      "componentType": 5126,
      "count": 588,
      "max": [
        1,
        1,
        1
      ],
      "min": [
        -1,
        -1,
        -1
      ],
      "type": "VEC3"
    },
    {
      "bufferView": 3,
      "byteOffset": 10624,
      "componentType": 5126,
      "count": 588,
      "max": [
        0.20000000298023224,
        0.40000000596046448,
        0.69803923368453979,
        1
      ],
      "min": [
        0.20000000298023224,
        0.40000000596046448,
        0.69803923368453979,
        1
      ],
      "type": "VEC4"
    },
    {
      "bufferView": 1,
      "byteOffset": 5312,
      "componentType": 5126,
      "count": 588,
      "max": [
        0,
        0
      ],
      "min": [
        0,
        0
      ],
      "type": "VEC2"
    },
    {
      "bufferView": 0,
      "byteOffset": 7824,
      "componentType": 5125,
      "count": 1692,
      "max": [
        587
      ],
      "min": [
        0
      ],
      "type": "SCALAR"
    },
    {
      "bufferView": 2,
      "byteOffset": 30048,
      "componentType": 5126,
      "count": 1807,
      "max": [
        189.98358154296875,
        247.04336547851562,
        83.958427429199219
      ],
      "min": [
        99.983573913574219,
        87.0528564453125,
        64.908424377441406
      ],
      "type": "VEC3"
    },
    {
      "bufferView": 2,
      "byteOffset": 51732,
      "componentType": 5126,
      "count": 1807,
      "max": [
        1,
        1,
        1
      ],
      "min": [
        -1,
        -1,
        -1
      ],
      "type": "VEC3"
    },
    {
      "bufferView": 3,
      "byteOffset": 20032,
      "componentType": 5126,
      "count": 1807,
      "max": [
        0.20000000298023224,
        0.40000000596046448,
        0.69803923368453979,
        1
      ],
      "min": [
        0.20000000298023224,
        0.40000000596046448,
        0.69803923368453979,
        1
      ],
      "type": "VEC4"
    },
    {
      "bufferView": 1,
      "byteOffset": 10016,
      "componentType": 5126,
      "count": 1807,
      "max": [
        0,
        0
      ],
      "min": [
        0,
        0
      ],
      "type": "VEC2"
    },
    {
      "bufferView": 0,
      "byteOffset": 14592,
      "componentType": 5125,
      "count": 7548,
      "max": [
        1806
      ],
      "min": [
        0
      ],
      "type": "SCALAR"
    },
    {
      "bufferView": 2,
      "byteOffset": 73416,
      "componentType": 5126,
      "count": 432,
      "max": [
        187.98097229003906,
        255.15272521972656,
        115.30690002441406
      ],
      "min": [
        101.98616790771484,
        253.15272521972656,
        29.409452438354492
      ],
      "type": "VEC3"
    },
    {
      "bufferView": 2,
      "byteOffset": 78600,
      "componentType": 5126,
      "count": 432,
      "max": [
        0.99999821186065674,
        1,
        0.99922066926956177
      ],
      "min": [
        -0.99999821186065674,
        -1,
        -0.99933052062988281
      ],
      "type": "VEC3"
    },
    {
      "bufferView": 3,
      "byteOffset": 48944,
      "componentType": 5126,
      "count": 432,
      "max": [
        0.7921568751335144,
        0.81960785388946533,
        0.93333333730697632,
        1
      ],
      "min": [
        0.7921568751335144,
        0.81960785388946533,
        0.93333333730697632,
        1
      ],
      "type": "VEC4"
    },
    {
      "bufferView": 1,
      "byteOffset": 24472,
      "componentType": 5126,
      "count": 432,
      "max": [
        0,
        0
      ],
      "min": [
        0,
        0
      ],
      "type": "VEC2"
    },
    {
      "bufferView": 0,
      "byteOffset": 44784,
      "componentType": 5125,
      "count": 1260,
      "max": [
        431
      ],
      "min": [
        0
      ],
      "type": "SCALAR"
    },
    {
      "bufferView": 2,
      "byteOffset": 83784,
      "componentType": 5126,
      "count": 432,
      "max": [
        187.98097229003906,
        263.15274047851562,
        115.30690002441406
      ],
      "min": [
        101.98616790771484,
        261.15274047851562,
        29.409452438354492
      ],
      "type": "VEC3"
    },
    {
      "bufferView": 2,
      "byteOffset": 88968,
      "componentType": 5126,
      "count": 432,
      "max": [
        0.99999821186065674,
        1,
        0.99922066926956177
      ],
      "min": [
        -0.99999821186065674,
        -1,
        -0.99933052062988281
      ],
      "type": "VEC3"
    },
    {
      "bufferView": 3,
      "byteOffset": 55856,
      "componentType": 5126,
      "count": 432,
      "max": [
        0.7921568751335144,
        0.81960785388946533,
        0.93333333730697632,
        1
      ],
      "min": [
        0.7921568751335144,
        0.81960785388946533,
        0.93333333730697632,
        1
      ],
      "type": "VEC4"
    },
    {
      "bufferView": 1,
      "byteOffset": 27928,
      "componentType": 5126,
      "count": 432,
      "max": [
        0,
        0
      ],
      "min": [
        0,
        0
      ],
      "type": "VEC2"
    },
    {
      "bufferView": 0,
      "byteOffset": 49824,
      "componentType": 5125,
      "count": 1260,
      "max": [
        431
      ],
      "min": [
        0
      ],
      "type": "SCALAR"
    },
    {
      "bufferView": 2,
      "byteOffset": 94152,
      "componentType": 5126,
      "count": 4901,
      "max": [
        186.98356628417969,
        271.15274047851562,
        114.38053894042969
      ],
      "min": [
        102.98357391357422,
        216.15274047851562,
        30.380666732788086
      ],
      "type": "VEC3"
    },
    {
      "bufferView": 2,
      "byteOffset": 152964,
      "componentType": 5126,
      "count": 4901,
      "max": [
        1,
        1,
        1
      ],
      "min": [
        -1,
        -1,
        -1
      ],
      "type": "VEC3"
    },
    {
      "bufferView": 3,
      "byteOffset": 62768,
      "componentType": 5126,
      "count": 4901,
      "max": [
        0.7921568751335144,
        0.81960785388946533,
        0.93333333730697632,
        1
      ],
      "min": [
        0.7921568751335144,
        0.81960785388946533,
        0.93333333730697632,
        1
      ],
      "type": "VEC4"
    },
    {
      "bufferView": 1,
      "byteOffset": 31384,
      "componentType": 5126,
      "count": 4901,
      "max": [
        0,
        0
      ],
      "min": [
        0,
        0
      ],
      "type": "VEC2"
    },
    {
      "bufferView": 0,
      "byteOffset": 54864,
      "componentType": 5125,
      "count": 21108,
      "max": [
        4900
      ],
      "min": [
        0
      ],
      "type": "SCALAR"
    }
  ],
  "asset": {
    "extras": {
      "author": "francobravo (https://sketchfab.com/francobravo)",
      "license": "CC-BY-4.0 (http://creativecommons.org/licenses/by/4.0/)",
      "source": "https://sketchfab.com/3d-models/piston-and-connecting-rod-940d24ffb7864be898963391665fcc9f",
      "title": "Piston and connecting rod"
    },
    "generator": "Sketchfab-10.40.0",
    "version": "2.0"
  },
  "bufferViews": [
    {
      "buffer": 0,
      "byteLength": 139296,
      "byteOffset": 0,
      "name": "floatBufferViews",
      "target": 34963
    },
    {
      "buffer": 0,
      "byteLength": 70592,
      "byteOffset": 139296,
      "byteStride": 8,
      "name": "floatBufferViews",
      "target": 34962
    },
    {
      "buffer": 0,
      "byteLength": 211776,
      "byteOffset": 209888,
      "byteStride": 12,
      "name": "floatBufferViews",
      "target": 34962
    },
    {
      "buffer": 0,
      "byteLength": 141184,
      "byteOffset": 421664,
      "byteStride": 16,
      "name": "floatBufferViews",
      "target": 34962
    }
  ],
  "buffers": [
    {
      "byteLength": 562848,
      "uri": "scene.bin"
    }
  ],
  "materials": [
    {
      "doubleSided": true,
      "emissiveFactor": [
        0,
        0,
        0
      ],
      "name": "material_0",
      "pbrMetallicRoughness": {
        "baseColorFactor": [
          0.792157,
          0.819608,
          0.93333299999999997,
          1
        ],
        "metallicFactor": 0,
        "roughnessFactor": 0.59999999999999998
      }
    },
    {
      "doubleSided": true,
      "emissiveFactor": [
        0,
        0,
        0
      ],
      "name": "material_1",
      "pbrMetallicRoughness": {
        "baseColorFactor": [
          0.792157,
          0.819608,
          0.93333299999999997,
          1
        ],
        "metallicFactor": 0,
        "roughnessFactor": 0.59999999999999998
      }
    },
    {
      "doubleSided": true,
      "emissiveFactor": [
        0,
        0,
        0
      ],
      "name": "material_2",
      "pbrMetallicRoughness": {
        "baseColorFactor": [
          0.792157,
          0.819608,
          0.93333299999999997,
          1
        ],
        "metallicFactor": 0,
        "roughnessFactor": 0.59999999999999998
      }
    },
    {
      "doubleSided": true,
      "emissiveFactor": [
        0,
        0,
        0
      ],
      "name": "material_3",
      "pbrMetallicRoughness": {
        "baseColorFactor": [
          0.20000000000000001,
          0.39999999999999997,
          0.69803900000000008,
          1
        ],
        "metallicFactor": 0,
        "roughnessFactor": 0.59999999999999998
      }
    },
    {
      "doubleSided": true,
      "emissiveFactor": [
        0,
        0,
        0
      ],
      "name": "material_4",
      "pbrMetallicRoughness": {
        "baseColorFactor": [
          0.20000000000000001,
          0.39999999999999997,
          0.69803900000000008,
          1
        ],
        "metallicFactor": 0,
        "roughnessFactor": 0.59999999999999998
      }
    },
    {
      "doubleSided": true,
      "emissiveFactor": [
        0,
        0,
        0
      ],
      "name": "material_5",
      "pbrMetallicRoughness": {
        "baseColorFactor": [
          0.792157,
          0.819608,
          0.93333299999999997,
          1
        ],
        "metallicFactor": 0,
        "roughnessFactor": 0.59999999999999998
      }
    },
    {
      "doubleSided": true,
      "emissiveFactor": [
        0,
        0,
        0
      ],
      "name": "material_6",
      "pbrMetallicRoughness": {
        "baseColorFactor": [
          0.792157,
          0.819608,
          0.93333299999999997,
          1
        ],
        "metallicFactor": 0,
        "roughnessFactor": 0.59999999999999998
      }
    }
  ],
  "meshes": [
    {
      "primitives": [
        {
          "attributes": {
            "COLOR_0": 2,
            "NORMAL": 1,
            "POSITION": 0,
            "TEXCOORD_0": 3
          },
          "indices": 4,
          "material": 6,
          "mode": 4
        }
      ]
    },
    {
      "primitives": [
        {
          "attributes": {
            "COLOR_0": 7,
            "NORMAL": 6,
            "POSITION": 5,
            "TEXCOORD_0": 8
          },
          "indices": 9,
          "material": 5,
          "mode": 4
        }
      ]
    },
    {
      "primitives": [
        {
          "attributes": {
            "COLOR_0": 12,
            "NORMAL": 11,
            "POSITION": 10,
            "TEXCOORD_0": 13
          },
          "indices": 14,
          "material": 4,
          "mode": 4
        }
      ]
    },
    {
      "primitives": [
        {
          "attributes": {
            "COLOR_0": 17,
            "NORMAL": 16,
            "POSITION": 15,
            "TEXCOORD_0": 18
          },
          "indices": 19,
          "material": 3,
          "mode": 4
        }
      ]
    },
    {
      "primitives": [
        {
          "attributes": {
            "COLOR_0": 22,
            "NORMAL": 21,
            "POSITION": 20,
            "TEXCOORD_0": 23
          },
          "indices": 24,
          "material": 2,
          "mode": 4
        }
      ]
    },
    {
      "primitives": [
        {
          "attributes": {
            "COLOR_0": 27,
            "NORMAL": 26,
            "POSITION": 25,
            "TEXCOORD_0": 28
          },
          "indices": 29,
          "material": 1,
          "mode": 4
        }
      ]
    },
    {
      "primitives": [
        {
          "attributes": {
            "COLOR_0": 32,
            "NORMAL": 31,
            "POSITION": 30,
            "TEXCOORD_0": 33
          },
          "indices": 34,
          "material": 0,
          "mode": 4
        }
      ]
    }
  ],
  "nodes": [
    {
      "children": [
        1
      ],
      "name": "RootNode (gltf orientation matrix)",
      "rotation": [
        -0.70710678118654746,
        -0,
        -0,
        0.70710678118654757
      ]
    },
    {
      "children": [
        2
      ],
      "matrix": [
        1,
        2.832769343193999e-16,
        -1.6081226229577292e-16,
        0,
        -2.832769343193999e-16,
        1,
        1.6081226229577292e-16,
        0,
        1.6081226229577292e-16,
        -1.6081226229577292e-16,
        1,
        0,
        -5.6843418860808015e-14,
        -1.4210854715202004e-14,
        2.8421709430404007e-14,
        1
      ],
      "name": "RootNode (model correction matrix)"
    },
    {
      "children": [
        3,
        4,
        5,
        6,
        7,
        8,
        9
      ],
      "matrix": [
        1,
        0,
        0,
        0,
        0,
        0,
        1,
        0,
        0,
        -1,
        0,
        0,
        0,
        0,
        0,
        1
      ],
      "name": "currentmodel.wrl.cleaner.materialmerger.gles"
    },
    {
      "mesh": 0,
      "name": ""
    },
    {
      "mesh": 1,
      "name": ""
    },
    {
      "mesh": 2,
      "name": ""
    },
    {
      "mesh": 3,
      "name": ""
    },
    {
      "mesh": 4,
      "name": ""
    },
    {
      "mesh": 5,
      "name": ""
    },
    {
      "mesh": 6,
      "name": ""
    }
  ],
  "scene": 0,
  "scenes": [
    {
      "name": "OSG_Scene",
      "nodes": [
        0
      ]
    }
  ]
}

